<svg width="394" height="257" viewBox="0 0 394 257" fill="none" xmlns="http://www.w3.org/2000/svg">
<path d="M26.64 259.65C26.64 258.32 19.97 176.65 54.97 129.98C43.3 211.31 57.3 207.65 52.97 259.65C52.97 259.65 49.55 275.21 39.83 275.78C30.11 276.35 26.64 259.65 26.64 259.65Z" fill="#15202B"/>
<path d="M40.55 259.65C40.55 259.65 36.87 274.28 46.2 276.84C55.53 279.4 66.84 259.65 66.84 259.65C80.84 223.45 88.63 199.65 95.96 143.65C60.97 177.31 40.55 259.65 40.55 259.65Z" fill="#15202B"/>
<path d="M92.12 258.98C106.85 253.47 158.63 236.65 183.63 183.31C111.3 205.64 52.86 266.54 52.86 266.54C52.86 266.54 75.08 265.36 92.12 258.98Z" fill="#15202B"/>
<g clip-path="url(#clip0)">
<path d="M114.32 21.56C114.35 21.49 104.74 10.19 105.66 2.37C111.35 6.01 114.4 21.58 114.32 21.56Z" stroke="#15202B" stroke-miterlimit="10" stroke-linecap="round" stroke-linejoin="round"/>
<path d="M117.64 29.64C117.62 29.6 105.8 27.64 103.12 20.02C109.27 20.15 117.67 29.6 117.64 29.64Z" stroke="#15202B" stroke-miterlimit="10" stroke-linecap="round" stroke-linejoin="round"/>
<path d="M121.69 40.18C121.66 40.14 107.86 40.11 105.44 32.49C111.55 32.77 121.71 40.13 121.69 40.18Z" stroke="#15202B" stroke-miterlimit="10" stroke-linecap="round" stroke-linejoin="round"/>
<path d="M125.57 51.1C125.55 51.06 111.19 50.62 108.98 42.97C114.74 40.77 125.45 49.58 125.57 51.1Z" stroke="#15202B" stroke-miterlimit="10" stroke-linecap="round" stroke-linejoin="round"/>
<path d="M129.05 61.81C129.03 61.78 112.94 63.73 110.99 56.05C117.3 54.54 129.22 60.54 129.05 61.81Z" stroke="#15202B" stroke-miterlimit="10" stroke-linecap="round" stroke-linejoin="round"/>
<path d="M132.35 72.89C132.33 72.86 114.56 74.54 112.83 66.87C118.42 64.74 132.12 71.03 132.35 72.89Z" stroke="#15202B" stroke-miterlimit="10" stroke-linecap="round" stroke-linejoin="round"/>
<path d="M135.26 83.74C136.76 83.93 119.74 87.95 115.64 79.99C116.4 77.28 131.9 81.4 135.26 83.74Z" stroke="#15202B" stroke-miterlimit="10" stroke-linecap="round" stroke-linejoin="round"/>
<path d="M137.97 94.95C137.95 94.89 117.56 95.0001 116.23 87.3401C122.73 85.8501 138.09 93.72 137.97 94.95Z" stroke="#15202B" stroke-miterlimit="10" stroke-linecap="round" stroke-linejoin="round"/>
<path d="M140.31 105.92C140.29 105.81 116.43 103.62 115.25 96.06C122.82 93.52 141.38 103.55 140.31 105.92Z" stroke="#15202B" stroke-miterlimit="10" stroke-linecap="round" stroke-linejoin="round"/>
<path d="M142.43 117.24C142.48 118.8 115.84 113.6 114.63 104.02C120.82 102.39 142.75 114.7 142.43 117.24Z" stroke="#15202B" stroke-miterlimit="10" stroke-linecap="round" stroke-linejoin="round"/>
<path d="M144.2 128.31C144.17 129.7 116.83 124.92 115.98 115.67C124.63 113.77 144.27 128.1 144.2 128.31Z" stroke="#15202B" stroke-miterlimit="10" stroke-linecap="round" stroke-linejoin="round"/>
<path d="M145.72 139.72C145.72 139.48 115.14 131.69 114.47 124.35C126.12 124.71 145.71 140.15 145.72 139.72Z" stroke="#15202B" stroke-miterlimit="10" stroke-linecap="round" stroke-linejoin="round"/>
<path d="M146.92 150.85C146.91 150.61 114.31 143.14 113.95 133.98C131.61 133.6 147.02 150.71 146.92 150.85Z" stroke="#15202B" stroke-miterlimit="10" stroke-linecap="round" stroke-linejoin="round"/>
<path d="M147.85 162.33C147.85 162.14 117.86 153.29 111.97 143.78C137.21 148.56 147.9 162.35 147.85 162.33Z" stroke="#15202B" stroke-miterlimit="10" stroke-linecap="round" stroke-linejoin="round"/>
<path d="M148.46 173.52C148.38 173.59 123.86 170.61 111.07 154.24C134.25 157.47 148.55 173.45 148.46 173.52Z" stroke="#15202B" stroke-miterlimit="10" stroke-linecap="round" stroke-linejoin="round"/>
<path d="M148.8 185.03C148.84 184.65 109.23 171.95 109.27 164.95C120.05 163.69 148.96 184.6 148.8 185.03Z" stroke="#15202B" stroke-miterlimit="10" stroke-linecap="round" stroke-linejoin="round"/>
<path d="M148.83 196.24C148.79 196.1 114.06 187.32 107.42 173.37C119.33 174.13 149 195.81 148.83 196.24Z" stroke="#15202B" stroke-miterlimit="10" stroke-linecap="round" stroke-linejoin="round"/>
<path d="M148.57 207.77C148.59 207.45 108.03 194.68 107.78 184.14C118.3 183.33 148.77 207.27 148.57 207.77Z" stroke="#15202B" stroke-miterlimit="10" stroke-linecap="round" stroke-linejoin="round"/>
<path d="M148.02 218.99C148.05 218.74 111.28 205.55 106.33 196.3C119.68 195.4 148.21 218.55 148.02 218.99Z" stroke="#15202B" stroke-miterlimit="10" stroke-linecap="round" stroke-linejoin="round"/>
<path d="M147.15 230.51C147.15 230.37 113.69 217.92 103.86 205.83C113.59 204.62 147.38 229.94 147.15 230.51Z" stroke="#15202B" stroke-miterlimit="10" stroke-linecap="round" stroke-linejoin="round"/>
<path d="M146.01 241.71C145.98 241.6 110.37 229.04 101.87 213.75C110.67 213.51 146.29 241.08 146.01 241.71Z" stroke="#15202B" stroke-miterlimit="10" stroke-linecap="round" stroke-linejoin="round"/>
<path d="M144.54 253.21C144.48 253.16 109.95 239.85 98.32 221.89C113.03 224.48 144.82 252.66 144.54 253.21Z" stroke="#15202B" stroke-miterlimit="10" stroke-linecap="round" stroke-linejoin="round"/>
<path d="M142.82 264.37C142.92 263.98 100.67 243.17 96.02 232.89C112.57 233.86 143.13 263.79 142.82 264.37Z" stroke="#15202B" stroke-miterlimit="10" stroke-linecap="round" stroke-linejoin="round"/>
<path d="M140.74 275.8C140.74 275.61 96.15 259.58 94.37 246.11C113.01 246.57 141.03 275.29 140.74 275.8Z" stroke="#15202B" stroke-miterlimit="10" stroke-linecap="round" stroke-linejoin="round"/>
<path d="M116.5 28.69C116.51 28.73 126.8 19.08 122.8 11.38C118.9 16.22 116.55 28.71 116.5 28.69Z" stroke="#15202B" stroke-miterlimit="10" stroke-linecap="round" stroke-linejoin="round"/>
<path d="M120.65 39.55C120.66 39.6 131.6 29.82 127.8 22.03C122.2 24.48 119.92 38.37 120.65 39.55Z" stroke="#15202B" stroke-miterlimit="10" stroke-linecap="round" stroke-linejoin="round"/>
<path d="M124.4 50.2C124.39 50.24 138.69 42.03 135.14 34.09C129.4 37.13 123.62 49.37 124.4 50.2Z" stroke="#15202B" stroke-miterlimit="10" stroke-linecap="round" stroke-linejoin="round"/>
<path d="M127.96 61.23C127.96 61.27 143.91 52.64 140.56 44.59C134.88 46.37 127.26 59.69 127.96 61.23Z" stroke="#15202B" stroke-miterlimit="10" stroke-linecap="round" stroke-linejoin="round"/>
<path d="M131.14 72.04C129.88 72.96 146.91 67.94 145.95 58.14C143.85 56.19 133 68.47 131.14 72.04Z" stroke="#15202B" stroke-miterlimit="10" stroke-linecap="round" stroke-linejoin="round"/>
<path d="M134.11 83.2C134.11 83.26 152.44 73.59 149.47 65.34C143.23 67.66 133.58 82.34 134.11 83.2Z" stroke="#15202B" stroke-miterlimit="10" stroke-linecap="round" stroke-linejoin="round"/>
<path d="M136.71 94.13C136.73 94.24 157.65 81.68 154.8 73.26C147.1 74.96 134.98 92.69 136.71 94.13Z" stroke="#15202B" stroke-miterlimit="10" stroke-linecap="round" stroke-linejoin="round"/>
<path d="M139.09 105.42C139.65 107.21 162.77 91.77 159.19 80.92C153.19 82.67 138.18 103.57 139.09 105.42Z" stroke="#15202B" stroke-miterlimit="10" stroke-linecap="round" stroke-linejoin="round"/>
<path d="M141.12 116.45C141.61 118.06 166.27 104.05 163.09 93.49C154.66 95.64 141.26 116.63 141.12 116.45Z" stroke="#15202B" stroke-miterlimit="10" stroke-linecap="round" stroke-linejoin="round"/>
<path d="M142.9 127.83C142.97 128.07 170.28 110.9 167.9 102.07C157.5 107.45 143.29 128.59 142.9 127.83Z" stroke="#15202B" stroke-miterlimit="10" stroke-linecap="round" stroke-linejoin="round"/>
<path d="M144.35 138.94C144.39 139.18 174.7 123.34 171.8 112.36C155.2 118.39 144.48 139.07 144.35 138.94Z" stroke="#15202B" stroke-miterlimit="10" stroke-linecap="round" stroke-linejoin="round"/>
<path d="M145.54 150.39C145.56 150.58 173.9 135.84 176.72 122.68C153.83 135.49 145.58 150.36 145.54 150.39Z" stroke="#15202B" stroke-miterlimit="10" stroke-linecap="round" stroke-linejoin="round"/>
<path d="M146.41 161.56C146.3 161.5 171.27 156.48 180.29 134.41C158.59 144.01 146.49 161.62 146.41 161.56Z" stroke="#15202B" stroke-miterlimit="10" stroke-linecap="round" stroke-linejoin="round"/>
<path d="M147 173.06C147.07 173.44 185.81 155.91 184.25 146.54C173.8 148.12 147.2 173.48 147 173.06Z" stroke="#15202B" stroke-miterlimit="10" stroke-linecap="round" stroke-linejoin="round"/>
<path d="M147.29 184.26C147.24 184.41 182.58 174.7 187.4 156.28C176.08 160 147.48 184.69 147.29 184.26Z" stroke="#15202B" stroke-miterlimit="10" stroke-linecap="round" stroke-linejoin="round"/>
<path d="M147.28 195.78C147.28 196.11 188.76 183.16 188.13 169.27C177.98 170.41 147.49 196.28 147.28 195.78Z" stroke="#15202B" stroke-miterlimit="10" stroke-linecap="round" stroke-linejoin="round"/>
<path d="M146.98 206.99C146.98 207.25 185.19 196.13 190.04 183.92C176.97 184.19 147.15 207.45 146.98 206.99Z" stroke="#15202B" stroke-miterlimit="10" stroke-linecap="round" stroke-linejoin="round"/>
<path d="M146.37 218.51C146.34 218.65 181.8 210.68 192.31 195.61C182.95 195.15 146.55 219.1 146.37 218.51Z" stroke="#15202B" stroke-miterlimit="10" stroke-linecap="round" stroke-linejoin="round"/>
<path d="M145.48 229.71C145.4 229.82 183.59 224.29 193.72 205.49C185.32 206.04 145.67 230.37 145.48 229.71Z" stroke="#15202B" stroke-miterlimit="10" stroke-linecap="round" stroke-linejoin="round"/>
<path d="M144.27 241.21C144.16 241.25 181.86 237.3 196.28 215.99C181.64 218.8 144.44 241.79 144.27 241.21Z" stroke="#15202B" stroke-miterlimit="10" stroke-linecap="round" stroke-linejoin="round"/>
<path d="M142.8 252.37C142.78 252.77 189.91 243.27 196.63 230.07C180.41 229.64 142.97 252.99 142.8 252.37Z" stroke="#15202B" stroke-miterlimit="10" stroke-linecap="round" stroke-linejoin="round"/>
<path d="M140.98 263.82C140.89 264.01 189.15 263.82 194.94 246.78C176.93 243.71 141.11 264.38 140.98 263.82Z" stroke="#15202B" stroke-miterlimit="10" stroke-linecap="round" stroke-linejoin="round"/>
<path d="M114.32 21.56C150.93 108.15 158.75 204.43 136.28 296.09" stroke="#15202B" stroke-miterlimit="10" stroke-linecap="round" stroke-linejoin="round"/>
</g>
<g clip-path="url(#clip1)">
<path d="M372.41 172.03C372.45 171.97 387.12 174.18 393.28 169.28C387.18 166.36 372.35 171.97 372.41 172.03Z" stroke="#15202B" stroke-miterlimit="10" stroke-linecap="round" stroke-linejoin="round"/>
<path d="M363.79 173.46C363.83 173.46 371.73 182.47 379.61 180.73C376.27 175.57 363.81 173.41 363.79 173.46Z" stroke="#15202B" stroke-miterlimit="10" stroke-linecap="round" stroke-linejoin="round"/>
<path d="M352.7 175.57C352.75 175.57 360.05 187.29 367.8 185.33C364.34 180.28 352.73 175.53 352.7 175.57Z" stroke="#15202B" stroke-miterlimit="10" stroke-linecap="round" stroke-linejoin="round"/>
<path d="M341.37 178.03C341.42 178.03 349.35 190 357.02 187.84C355.86 181.78 342.73 177.33 341.37 178.03Z" stroke="#15202B" stroke-miterlimit="10" stroke-linecap="round" stroke-linejoin="round"/>
<path d="M330.43 180.71C330.47 180.72 337.29 195.42 344.84 193.02C342.8 186.87 331.42 179.9 330.43 180.71Z" stroke="#15202B" stroke-miterlimit="10" stroke-linecap="round" stroke-linejoin="round"/>
<path d="M319.28 183.75C319.32 183.75 327.26 199.74 334.69 197.17C333.55 191.29 320.98 182.96 319.28 183.75Z" stroke="#15202B" stroke-miterlimit="10" stroke-linecap="round" stroke-linejoin="round"/>
<path d="M308.52 186.99C307.56 185.82 313.12 202.4 322.05 201.69C323.95 199.62 312.28 188.62 308.52 186.99Z" stroke="#15202B" stroke-miterlimit="10" stroke-linecap="round" stroke-linejoin="round"/>
<path d="M297.57 190.6C297.63 190.59 308.29 207.97 315.5 205.07C313.34 198.75 298.55 189.84 297.57 190.6Z" stroke="#15202B" stroke-miterlimit="10" stroke-linecap="round" stroke-linejoin="round"/>
<path d="M287.01 194.39C287.11 194.35 301.55 213.48 308.59 210.49C306.77 202.72 288.46 192.23 287.01 194.39Z" stroke="#15202B" stroke-miterlimit="10" stroke-linecap="round" stroke-linejoin="round"/>
<path d="M276.27 198.56C274.91 199.34 293.38 219.24 302.15 215.22C300.28 209.1 278.26 196.95 276.27 198.56Z" stroke="#15202B" stroke-miterlimit="10" stroke-linecap="round" stroke-linejoin="round"/>
<path d="M265.94 202.88C264.77 203.64 283.25 224.35 291.55 220.21C288.6 211.85 266.08 202.71 265.94 202.88Z" stroke="#15202B" stroke-miterlimit="10" stroke-linecap="round" stroke-linejoin="round"/>
<path d="M255.44 207.6C255.64 207.47 278.38 229.36 284.97 226.06C278.52 216.35 255.08 207.84 255.44 207.6Z" stroke="#15202B" stroke-miterlimit="10" stroke-linecap="round" stroke-linejoin="round"/>
<path d="M245.34 212.45C245.55 212.33 269.08 236.1 277.05 231.58C268.07 216.37 245.41 212.29 245.34 212.45Z" stroke="#15202B" stroke-miterlimit="10" stroke-linecap="round" stroke-linejoin="round"/>
<path d="M235.1 217.71C235.26 217.62 258.58 238.44 269.78 238.43C252.41 219.49 235.05 217.68 235.1 217.71Z" stroke="#15202B" stroke-miterlimit="10" stroke-linecap="round" stroke-linejoin="round"/>
<path d="M225.27 223.08C225.25 223.19 240.71 242.45 261.36 244.69C246.4 226.71 225.29 222.98 225.27 223.08Z" stroke="#15202B" stroke-miterlimit="10" stroke-linecap="round" stroke-linejoin="round"/>
<path d="M215.31 228.87C215.61 228.63 247.28 255.61 253.21 251.88C248.59 242.05 215.59 228.5 215.31 228.87Z" stroke="#15202B" stroke-miterlimit="10" stroke-linecap="round" stroke-linejoin="round"/>
<path d="M205.76 234.75C205.89 234.71 231.66 259.6 247.02 257.9C240.1 248.17 206.04 234.38 205.76 234.75Z" stroke="#15202B" stroke-miterlimit="10" stroke-linecap="round" stroke-linejoin="round"/>
<path d="M196.1 241.05C196.37 240.86 228.59 268.6 237.68 263.27C232.82 253.89 196.42 240.61 196.1 241.05Z" stroke="#15202B" stroke-miterlimit="10" stroke-linecap="round" stroke-linejoin="round"/>
<path d="M186.86 247.43C187.06 247.27 217.64 271.57 228.12 270.9C221.84 259.08 187.13 247.03 186.86 247.43Z" stroke="#15202B" stroke-miterlimit="10" stroke-linecap="round" stroke-linejoin="round"/>
<path d="M177.52 254.24C177.64 254.17 205.85 276.04 221.31 278.03C217.21 269.11 177.88 253.74 177.52 254.24Z" stroke="#15202B" stroke-miterlimit="10" stroke-linecap="round" stroke-linejoin="round"/>
<path d="M365.2 173.93C365.16 173.95 367.94 160.12 376.59 159.46C374.53 165.32 365.15 173.9 365.2 173.93Z" stroke="#15202B" stroke-miterlimit="10" stroke-linecap="round" stroke-linejoin="round"/>
<path d="M353.78 176.13C353.74 176.15 356.28 161.7 364.9 160.82C365.77 166.87 355.17 176.12 353.78 176.13Z" stroke="#15202B" stroke-miterlimit="10" stroke-linecap="round" stroke-linejoin="round"/>
<path d="M342.75 178.55C342.72 178.57 342.17 162.1 350.78 160.94C351.23 167.41 343.87 178.78 342.75 178.55Z" stroke="#15202B" stroke-miterlimit="10" stroke-linecap="round" stroke-linejoin="round"/>
<path d="M331.5 181.34C331.47 181.37 330.39 163.26 339 161.87C340.48 167.62 333.18 181.12 331.5 181.34Z" stroke="#15202B" stroke-miterlimit="10" stroke-linecap="round" stroke-linejoin="round"/>
<path d="M320.65 184.33C320.54 185.88 315.82 168.76 324.66 164.42C327.41 165.17 322.69 180.87 320.65 184.33Z" stroke="#15202B" stroke-miterlimit="10" stroke-linecap="round" stroke-linejoin="round"/>
<path d="M309.59 187.69C309.54 187.72 308.1 167.05 316.68 165.23C317.99 171.74 310.6 187.68 309.59 187.69Z" stroke="#15202B" stroke-miterlimit="10" stroke-linecap="round" stroke-linejoin="round"/>
<path d="M298.93 191.24C298.82 191.28 298.48 166.88 307.13 164.87C309.75 172.3 301.07 191.95 298.93 191.24Z" stroke="#15202B" stroke-miterlimit="10" stroke-linecap="round" stroke-linejoin="round"/>
<path d="M288.08 195.16C286.27 195.63 287.21 167.84 298.31 165.16C299.98 171.19 290.13 194.97 288.08 195.16Z" stroke="#15202B" stroke-miterlimit="10" stroke-linecap="round" stroke-linejoin="round"/>
<path d="M277.64 199.26C276.02 199.69 274.92 171.35 285.57 168.49C288.19 176.78 277.41 199.23 277.64 199.26Z" stroke="#15202B" stroke-miterlimit="10" stroke-linecap="round" stroke-linejoin="round"/>
<path d="M267.03 203.73C266.8 203.8 266.99 171.54 275.74 168.91C276.66 180.59 266.18 203.8 267.03 203.73Z" stroke="#15202B" stroke-miterlimit="10" stroke-linecap="round" stroke-linejoin="round"/>
<path d="M256.82 208.36C256.59 208.45 254.08 174.35 264.94 171.02C268.56 188.31 256.64 208.31 256.82 208.36Z" stroke="#15202B" stroke-miterlimit="10" stroke-linecap="round" stroke-linejoin="round"/>
<path d="M246.46 213.38C246.29 213.46 243.88 181.61 253.58 172.28C254.75 198.48 246.47 213.33 246.46 213.38Z" stroke="#15202B" stroke-miterlimit="10" stroke-linecap="round" stroke-linejoin="round"/>
<path d="M236.51 218.53C236.62 218.59 227.73 194.73 241.73 175.43C245.01 198.93 236.42 218.49 236.51 218.53Z" stroke="#15202B" stroke-miterlimit="10" stroke-linecap="round" stroke-linejoin="round"/>
<path d="M226.43 224.09C226.07 224.23 220.55 182.07 229.33 178.46C233.5 188.17 225.97 224.13 226.43 224.09Z" stroke="#15202B" stroke-miterlimit="10" stroke-linecap="round" stroke-linejoin="round"/>
<path d="M216.76 229.75C216.66 229.87 206.29 194.72 219.4 180.92C222.2 192.49 216.29 229.81 216.76 229.75Z" stroke="#15202B" stroke-miterlimit="10" stroke-linecap="round" stroke-linejoin="round"/>
<path d="M206.97 235.82C206.68 235.99 195.84 193.91 207.97 187.13C212.36 196.36 206.43 235.91 206.97 235.82Z" stroke="#15202B" stroke-miterlimit="10" stroke-linecap="round" stroke-linejoin="round"/>
<path d="M197.6 241.99C197.38 242.13 186.69 203.79 194.51 193.23C201.17 204.48 197.12 242.08 197.6 241.99Z" stroke="#15202B" stroke-miterlimit="10" stroke-linecap="round" stroke-linejoin="round"/>
<path d="M188.13 248.57C188.03 248.67 176.11 214.33 183.38 197.46C188.71 205.18 187.54 248.73 188.13 248.57Z" stroke="#15202B" stroke-miterlimit="10" stroke-linecap="round" stroke-linejoin="round"/>
<path d="M179.08 255.23C179.02 255.35 163.6 219.99 174.24 201.47C178.21 208.9 178.42 255.42 179.08 255.23Z" stroke="#15202B" stroke-miterlimit="10" stroke-linecap="round" stroke-linejoin="round"/>
<path d="M169.95 262.32C169.97 262.43 153.46 228.31 163.97 204.82C169.3 218.76 169.37 262.48 169.95 262.32Z" stroke="#15202B" stroke-miterlimit="10" stroke-linecap="round" stroke-linejoin="round"/>
<path d="M161.23 269.45C160.9 269.68 144.13 224.62 151.82 211.95C160.73 225.51 160.62 269.64 161.23 269.45Z" stroke="#15202B" stroke-miterlimit="10" stroke-linecap="round" stroke-linejoin="round"/>
<path d="M152.46 277.03C152.34 277.2 127.08 236.09 138.51 222.19C150.61 235.88 151.92 277.22 152.46 277.03Z" stroke="#15202B" stroke-miterlimit="10" stroke-linecap="round" stroke-linejoin="round"/>
<path d="M144.11 284.64C144.17 284.7 112.28 247.28 121.87 228.97C135.81 250 143.82 284.78 144.11 284.64Z" stroke="#15202B" stroke-miterlimit="10" stroke-linecap="round" stroke-linejoin="round"/>
<path d="M372.41 172.03C279.53 186.55 193.58 230.64 127.52 298.04" stroke="#15202B" stroke-miterlimit="10" stroke-linecap="round" stroke-linejoin="round"/>
</g>
<defs>
<clipPath id="clip0">
<rect width="103.59" height="293.72" fill="white" transform="translate(94.37 2.37)"/>
</clipPath>
<clipPath id="clip1">
<rect width="273.208" height="148.554" fill="white" transform="translate(120.072 159.46)"/>
</clipPath>
</defs>
</svg>
