<svg width="339" height="192" viewBox="0 0 339 192" fill="none" xmlns="http://www.w3.org/2000/svg">
<path d="M339.1 91.6C278.02 129.8 213.43 143.27 56.77 119.99C86.12 116.86 169.44 99.93 225.45 66.77C276.91 36.31 308.77 -10.78 342.11 -10.24C377.53 -9.64999 400.18 53.4 339.1 91.6Z" fill="#15202B"/>
<path d="M297.51 22.93C212.76 84.55 151.43 93.6 14.43 81.6C83.74 66.19 132.53 59.65 184.1 19.93C231.47 -16.56 254.75 -72.24 288.12 -78.52C322.93 -85.07 355.78 -19.44 297.51 22.93Z" fill="#15202B"/>
<path d="M283.08 -22.1C198.33 39.52 137 48.57 0 36.57C69.31 21.16 118.1 14.62 169.67 -25.1C217.04 -61.59 240.32 -117.27 273.69 -123.55C308.5 -130.1 341.35 -64.47 283.08 -22.1Z" fill="#15202B"/>
<path d="M304.29 123.01C304.29 123.01 286.82 144.07 252.05 159.09C217.28 174.11 212.38 179.33 212.38 179.33" fill="#15202B"/>
<path d="M304.29 123.01C304.29 123.01 286.82 144.07 252.05 159.09C217.28 174.11 212.38 179.33 212.38 179.33" stroke="#15202B" stroke-miterlimit="10" stroke-linecap="round" stroke-linejoin="round"/>
<path d="M214.82 186.719C219.362 184.729 221.594 179.802 219.803 175.715C218.013 171.627 212.879 169.927 208.336 171.916C203.793 173.906 201.562 178.833 203.352 182.92C205.143 187.008 210.277 188.709 214.82 186.719Z" stroke="#15202B" stroke-miterlimit="10" stroke-linecap="round" stroke-linejoin="round"/>
<path d="M229.429 164.222C233.972 162.232 236.203 157.306 234.413 153.218C232.622 149.131 227.488 147.43 222.945 149.42C218.402 151.409 216.171 156.336 217.961 160.424C219.752 164.511 224.886 166.212 229.429 164.222Z" stroke="#15202B" stroke-miterlimit="10" stroke-linecap="round" stroke-linejoin="round"/>
<path d="M233.2 190.61C237.635 190.61 241.23 187.015 241.23 182.58C241.23 178.145 237.635 174.55 233.2 174.55C228.765 174.55 225.17 178.145 225.17 182.58C225.17 187.015 228.765 190.61 233.2 190.61Z" stroke="#15202B" stroke-miterlimit="10" stroke-linecap="round" stroke-linejoin="round"/>
<path d="M254.62 180.18C259.055 180.18 262.65 176.585 262.65 172.15C262.65 167.715 259.055 164.12 254.62 164.12C250.185 164.12 246.59 167.715 246.59 172.15C246.59 176.585 250.185 180.18 254.62 180.18Z" stroke="#15202B" stroke-miterlimit="10" stroke-linecap="round" stroke-linejoin="round"/>
<path d="M246.54 153.33C250.975 153.33 254.57 149.735 254.57 145.3C254.57 140.865 250.975 137.27 246.54 137.27C242.105 137.27 238.51 140.865 238.51 145.3C238.51 149.735 242.105 153.33 246.54 153.33Z" stroke="#15202B" stroke-miterlimit="10" stroke-linecap="round" stroke-linejoin="round"/>
<path d="M274.26 171.85C278.695 171.85 282.29 168.255 282.29 163.82C282.29 159.385 278.695 155.79 274.26 155.79C269.825 155.79 266.23 159.385 266.23 163.82C266.23 168.255 269.825 171.85 274.26 171.85Z" stroke="#15202B" stroke-miterlimit="10" stroke-linecap="round" stroke-linejoin="round"/>
<path d="M227.89 157.45L238.5 165.12" stroke="#15202B" stroke-miterlimit="10" stroke-linecap="round" stroke-linejoin="round"/>
<path d="M238.51 165.12L233.2 182.58" stroke="#15202B" stroke-miterlimit="10" stroke-linecap="round" stroke-linejoin="round"/>
<path d="M245.32 145.27L260.81 155.1" stroke="#15202B" stroke-miterlimit="10" stroke-linecap="round" stroke-linejoin="round"/>
<path d="M260.81 155.1L255.53 170.11" stroke="#15202B" stroke-miterlimit="10" stroke-linecap="round" stroke-linejoin="round"/>
<path d="M278.25 145.3L274.08 162.75" stroke="#15202B" stroke-miterlimit="10" stroke-linecap="round" stroke-linejoin="round"/>
<path d="M264.27 141.35C268.705 141.35 272.3 137.755 272.3 133.32C272.3 128.885 268.705 125.29 264.27 125.29C259.835 125.29 256.24 128.885 256.24 133.32C256.24 137.755 259.835 141.35 264.27 141.35Z" stroke="#15202B" stroke-miterlimit="10" stroke-linecap="round" stroke-linejoin="round"/>
<path d="M278.25 145.3L265.3 133.64" stroke="#15202B" stroke-miterlimit="10" stroke-linecap="round" stroke-linejoin="round"/>
</svg>
