<svg width="169" height="418" viewBox="0 0 169 418" fill="none" xmlns="http://www.w3.org/2000/svg">
<path d="M64.65 199.23C82.22 227.21 105.79 260.6 133.2 289.15C133.2 289.15 100.7 224.98 95.7 175.65C95.7 175.65 122.7 219.56 168.2 247.1C83.7 135.55 71.86 54.65 71.86 54.65C71.86 54.65 52.2 -29.35 9.19999 -4.35C-0.330007 1.19 -3.92001 13.69 -4.98001 25.77C-6.24001 40.16 -3.81001 54.63 1.65999 67.99L18.54 109.25C31.33 140.5 46.69 170.64 64.65 199.23Z" fill="#15202B"/>
<path d="M-4.83999 78.31C-7.36999 110.51 15.9 176.01 33.61 220.37C51.68 265.64 80.68 305.83 118.32 336.8C119.27 337.58 120.23 338.36 121.19 339.14C110.4 325.56 63.19 248.14 40.19 138.64C40.19 138.64 30.94 55.97 8.86001 51.31C-3.67999 48.66 -4.83999 78.31 -4.83999 78.31Z" fill="#15202B"/>
<path d="M37.2 288.15C37.2 288.15 51.7 314.15 71.2 326.65C71.2 326.65 55.2 290.65 52.7 265.65C52.7 265.65 41.45 189.53 26.13 187.65C-15.35 182.57 37.2 288.15 37.2 288.15Z" fill="#15202B"/>
<path d="M-3.8 314.65C2.7 336.15 47.7 387.15 102.7 417.15C104.7 418.65 54.7 355.78 37.2 288.15C37.2 288.15 15.53 170.57 -22.8 190.65C-61.13 210.73 -3.8 314.65 -3.8 314.65Z" fill="#15202B"/>
<path d="M-3.8 331.31C-3.8 331.31 33.7 387.18 65.7 417.18C30.7 402.68 -3.8 370.65 -3.8 369.15C-3.8 367.65 -3.8 331.31 -3.8 331.31Z" fill="#15202B"/>
</svg>
