<svg width="393" height="202" viewBox="0 0 393 202" fill="none" xmlns="http://www.w3.org/2000/svg">
<path d="M80.09 129.08C77.08 130.21 76.26 136.16 75.84 140.5C78.84 140.5 84.76 139.17 86.84 137.92C85.84 132.5 82.75 128.08 80.09 129.08Z" fill="#15202B"/>
<path d="M79.9399 138.23C79.9399 138.48 81.0499 147.51 80.7199 150.45C80.3899 153.39 80.4999 153.48 84.0599 153.67C87.6199 153.86 84.8699 141.29 82.8699 138.23C81.8799 137.54 79.9399 138.23 79.9399 138.23Z" fill="#15202B"/>
<path d="M94.34 142.69C94.34 142.69 101.25 135.78 107.29 139.78C109.45 141.47 105.26 144.66 104.07 145.78C102.88 146.9 101.38 150.96 101.38 150.96C101.38 150.96 95.11 147.6 94.34 142.69Z" fill="#15202B"/>
<path d="M97.57 145.48C97.57 145.48 89.63 152.11 90.63 155.17C91.63 158.23 95.38 157.17 95.82 155.17C96.26 153.17 97.57 148.36 98.88 147.29C100.19 146.22 97.57 145.48 97.57 145.48Z" fill="#15202B"/>
<path d="M111.19 148.6C111.19 148.6 114.69 145.55 119.94 145.79C125.19 146.03 124.85 146.59 123.07 150.97C121.29 155.35 119.57 156.78 119.57 156.78C119.57 156.78 112.13 151.91 111.19 148.6Z" fill="#15202B"/>
<path d="M115 151.28C114.87 151.35 109.75 151.98 110.12 158.6C110.31 160.85 113.18 159.98 113.06 158.6C112.94 157.22 112.93 157.22 112.93 157.22C112.93 157.22 112.37 153.97 115.43 152.78C116.44 152.16 115 151.28 115 151.28Z" fill="#15202B"/>
<path d="M188.02 169.71C186.29 171.17 110.92 150.32 38.83 147.39C30.84 184.68 26.47 203.72 26.47 203.72L185.12 203.74L188.02 169.71Z" fill="#002E47"/>
<path d="M206.27 207.53C197.76 193.66 182.29 184.31 166.06 183.22C146.06 181.87 125.01 194.56 119.83 213.92C118.98 217.09 118.55 220.42 119.08 223.66C120.4 231.64 127.58 237.72 135.4 239.78C143.22 241.84 151.54 240.55 159.34 238.4C175.27 234.02 190.21 226.09 202.77 215.36C210.51 208.74 217.77 200.06 217.82 189.88C217.88 177.14 206.57 167.09 194.79 162.25C177.17 155.01 156.93 155.52 138.84 161.49C120.75 167.46 104.69 178.59 90.97 191.81C82 200.45 73.72 210.41 70.14 222.34C66.56 234.27 68.59 248.54 77.78 256.94C80.49 259.41 83.69 261.3 87.01 262.84C110.17 273.63 138.05 267.91 160.59 255.86C171.63 249.96 182.04 242.49 189.81 232.67C195.38 225.63 199.59 217.19 200.04 208.23C200.41 200.9 198.25 193.65 195.29 186.94C189.59 174 180.87 162.55 170.93 152.48C153.3 134.62 130.1 120.36 105 120.44C82.58 120.51 61.42 132.12 45.37 147.76C41.14 151.89 37.09 156.46 35.13 162.04C31.06 173.64 36.95 186.3 43.95 196.41C55.82 213.54 71.83 228.34 91.27 235.85C110.71 243.36 133.79 242.84 151.42 231.72C158.55 227.22 164.85 220.82 167.39 212.78C168.52 209.19 168.77 204.94 166.45 201.98C165.09 200.25 163.06 199.21 161.06 198.3C156.42 196.2 151.6 194.52 146.77 192.92C123.56 185.22 99.81 179.11 75.76 174.66C63.43 172.38 50.79 170.53 38.4 172.46C26.01 174.39 13.75 180.62 7.24999 191.34C6.20999 193.06 5.29999 194.97 5.34999 196.98C5.44999 200.69 8.89999 203.6 12.51 204.42C16.13 205.23 19.89 204.45 23.53 203.75C61.53 196.38 100.74 197.31 139.15 202.12C159.2 204.63 179.39 208.19 199.49 206.09C202.87 205.74 206.34 205.19 209.24 203.42C212.15 201.66 214.39 198.41 214.02 195.03C213.69 192.04 211.49 189.62 209.24 187.63C193.65 173.81 171.85 169.91 151.19 167.13C104.22 160.82 56.85 157.46 9.45999 157.07" stroke="#15202B" stroke-miterlimit="10"/>
<path d="M2.25 203.69C2.25 203.69 19.25 145.67 38.83 147.34C52.83 148.53 32.96 203.67 32.96 203.67L0 203.69" fill="#15202B"/>
<path d="M23.33 206.89C22.94 207.29 23.63 207.97 24.16 207.78C24.69 207.59 24.92 206.99 25.09 206.46C28.5 195.63 28.94 183.87 26.34 172.82C25.71 170.13 24.07 166.88 21.32 167.17C19.39 167.37 18.16 169.3 17.33 171.05C13.2 179.72 11.35 189.46 12.01 199.04C12.12 200.63 12.32 202.27 13.14 203.64C13.96 205.01 15.58 206.02 17.13 205.66C18.39 205.37 19.31 204.3 20.09 203.27C25.85 195.68 29.78 186.71 31.47 177.33C31.58 176.69 31.68 176.01 31.41 175.42C30.6 173.65 27.89 174.61 26.44 175.91C20.39 181.36 16.37 189 15.3 197.07C15.01 199.25 15.07 201.81 16.77 203.21C18.13 204.33 20.17 204.3 21.78 203.56C23.38 202.83 24.38 201.22 25.81 200.19C39.3 190.49 42.48 178.93 43.65 166.57C43.94 163.54 44.88 160.15 42.92 157.81C40.11 154.47 34.58 155.99 31.16 158.68C26.99 161.96 23.96 166.47 21.46 171.16C14 185.19 10.86 201.49 12.59 217.3C12.82 219.39 13.16 221.55 14.34 223.29C15.52 225.03 17.77 226.22 19.76 225.54C21.2 225.05 22.18 223.74 23.05 222.49C36.35 203.29 44.58 180.61 46.68 157.35C46.88 155.17 47.02 152.92 46.37 150.82C45.72 148.72 44.11 146.79 41.96 146.37C40.78 146.14 39.57 146.37 38.42 146.73C33.54 148.23 29.58 151.79 26 155.43C16.66 164.93 8.53 175.96 4.38 188.61C0.229999 201.26 0.409999 215.72 6.87 227.37" stroke="#014159" stroke-miterlimit="10"/>
<path d="M393.22 127.36C391.22 129.36 295.05 111.36 204.89 115.36C198.89 162.69 196.89 203.69 196.89 203.69H393.22V127.36Z" fill="#002E47"/>
<path d="M385.78 108.87C336.09 105.52 285.42 118.75 243.7 145.95C230.93 154.28 217.71 166.64 219.27 181.81C220.46 193.43 230.28 202.4 240.75 207.58C260.21 217.19 282.98 217.42 304.51 214.71C322.64 212.43 340.79 208.12 356.69 199.12C364.44 194.73 371.79 189.02 375.96 181.15C381.24 171.18 380.66 158.79 376.17 148.44C371.69 138.09 363.68 129.6 354.73 122.73C341.43 112.53 325.45 105.42 308.73 104.31C292.01 103.19 274.6 108.46 262.5 120.07C256.54 125.79 251.78 133.54 252.25 141.79C252.75 150.59 259 158 265.85 163.54C277.01 172.57 290.37 178.41 303.79 183.53C325.47 191.8 347.78 198.44 370.45 203.38C390.46 207.74 411.54 210.74 431.22 205.08C439.84 202.6 449.2 196.72 449.34 187.75C449.47 179.67 442 173.65 434.83 169.91C412.47 158.25 386.5 155.74 361.28 155.7C310.94 155.62 260.61 164.57 213.39 182C199.92 186.97 186.46 192.78 175.59 202.17C171.25 205.92 167.11 210.87 167.37 216.6C167.67 223.19 173.6 228.04 179.4 231.19C195.5 239.94 214.15 242.57 232.4 244.22C285.97 249.05 340.74 246.49 392.2 230.84C414.24 224.14 435.79 214.93 454.05 200.89C460.71 195.77 467.28 189.35 468.56 181.04C470.37 169.27 460.92 158.72 450.85 152.35C437.62 143.98 422.35 139.43 407.06 136.09C355.06 124.71 301.25 126.24 248.02 126.64C217.84 126.86 186.74 126.87 158.83 138.36C151.95 141.19 144.81 145.27 142.12 152.22C138.73 160.98 143.75 170.76 150 177.77C163.16 192.53 182.04 201.23 201.35 205.5C220.66 209.77 240.6 209.98 260.37 210.16C308.17 210.61 355.96 211.06 403.76 211.51C422.06 211.68 440.94 211.75 457.85 204.74C458.95 204.28 460.09 203.76 460.8 202.81C463.13 199.73 459.44 195.63 455.92 194.03C447.97 190.4 439.04 189.72 430.33 189C388.61 185.53 347.09 179.68 306.04 171.48C260.46 162.38 215 150.33 168.52 149.85C161.03 149.77 153.27 150.06 146.55 153.37" stroke="#15202B" stroke-miterlimit="10"/>
<path d="M166.47 203.69C166.47 203.69 180.3 115.36 204.89 115.36C222.47 115.36 204.89 203.69 204.89 203.69H166.47Z" fill="#15202B"/>
<path d="M197.09 207.83C201.31 195.48 204.12 182.65 205.45 169.67C206 164.36 206.27 158.85 204.49 153.81C203.81 151.87 202.77 149.98 201.12 148.75C197.32 145.95 191.82 147.69 188.04 150.52C183.09 154.23 179.53 159.53 176.81 165.09C170.77 177.48 168.57 191.71 170.6 205.34C171.44 210.99 173.04 216.66 176.37 221.3C177.49 222.87 178.9 224.36 180.75 224.92C182.96 225.58 185.41 224.73 187.18 223.25C188.95 221.77 190.17 219.75 191.29 217.73C198.32 205.06 202.79 191.15 206.72 177.2C210.52 163.69 213.88 149.87 213.9 135.84C213.91 132.77 213.73 129.6 212.38 126.84C211.04 124.08 208.26 121.82 205.2 121.94C203.07 122.02 201.15 123.21 199.41 124.45C180.4 138.04 171.39 163.13 174.24 186.33C175.2 194.14 177.58 202.16 183.19 207.67C185.28 209.72 187.97 211.42 190.9 211.39C195.43 211.34 198.83 207.31 201.13 203.4C207.59 192.41 210.52 179.69 212.19 167.05C214.03 153.16 214.46 138.97 211.79 125.21C211.46 123.51 210.96 121.64 209.49 120.73C207.37 119.41 204.61 120.87 202.79 122.57C199.13 126.01 196.67 130.52 194.54 135.07C185.2 155 180.96 177.29 182.33 199.25C182.88 208.09 184.46 217.21 189.54 224.46C190.35 225.62 191.53 226.84 192.93 226.63C194.06 226.46 194.83 225.42 195.39 224.42C197.04 221.44 197.91 218.11 198.75 214.81C203.74 195.22 208.22 175.5 212.16 155.67C213.02 151.35 213.85 146.86 212.73 142.6C211.09 141.39 208.74 141.53 206.92 142.44C205.1 143.35 203.69 144.91 202.37 146.46C190.16 160.86 181.7 178.42 178.06 196.95C176.5 204.91 175.82 213.23 177.94 221.06C180.06 228.89 185.34 236.18 192.9 239.1C192.33 238.85 191.77 238.6 191.2 238.34" stroke="#014159" stroke-miterlimit="10"/>
<path d="M316.75 19.69C316.79 19.62 303.64 8.32 304.9 0.5C312.69 4.14 316.87 19.71 316.75 19.69Z" stroke="#657786" stroke-miterlimit="10" stroke-linecap="round" stroke-linejoin="round"/>
<path d="M321.3 27.77C321.27 27.73 305.1 25.77 301.44 18.15C309.85 18.28 321.34 27.73 321.3 27.77Z" stroke="#657786" stroke-miterlimit="10" stroke-linecap="round" stroke-linejoin="round"/>
<path d="M326.84 38.31C326.81 38.27 307.92 38.24 304.61 30.62C312.98 30.9 326.87 38.26 326.84 38.31Z" stroke="#657786" stroke-miterlimit="10" stroke-linecap="round" stroke-linejoin="round"/>
<path d="M332.14 49.23C332.11 49.19 312.47 48.75 309.45 41.1C317.34 38.9 331.99 47.71 332.14 49.23Z" stroke="#657786" stroke-miterlimit="10" stroke-linecap="round" stroke-linejoin="round"/>
<path d="M336.92 59.94C336.89 59.91 314.88 61.86 312.22 54.18C320.83 52.67 337.14 58.67 336.92 59.94Z" stroke="#657786" stroke-miterlimit="10" stroke-linecap="round" stroke-linejoin="round"/>
<path d="M341.42 71.02C341.39 70.99 317.08 72.67 314.72 65C322.37 62.87 341.12 69.16 341.42 71.02Z" stroke="#657786" stroke-miterlimit="10" stroke-linecap="round" stroke-linejoin="round"/>
<path d="M345.41 81.87C347.46 82.06 324.17 86.08 318.57 78.12C319.6 75.41 340.81 79.53 345.41 81.87Z" stroke="#657786" stroke-miterlimit="10" stroke-linecap="round" stroke-linejoin="round"/>
<path d="M349.11 93.08C349.08 93.02 321.19 93.13 319.37 85.47C328.27 83.98 349.28 91.85 349.11 93.08Z" stroke="#657786" stroke-miterlimit="10" stroke-linecap="round" stroke-linejoin="round"/>
<path d="M352.32 104.05C352.29 103.94 319.65 101.75 318.04 94.19C328.39 91.65 353.78 101.68 352.32 104.05Z" stroke="#657786" stroke-miterlimit="10" stroke-linecap="round" stroke-linejoin="round"/>
<path d="M355.21 115.37C355.28 116.93 318.84 111.73 317.19 102.15C325.65 100.52 355.65 112.83 355.21 115.37Z" stroke="#657786" stroke-miterlimit="10" stroke-linecap="round" stroke-linejoin="round"/>
<path d="M357.64 126.44C357.6 127.83 320.2 123.05 319.03 113.8C330.87 111.9 357.73 126.23 357.64 126.44Z" stroke="#657786" stroke-miterlimit="10" stroke-linecap="round" stroke-linejoin="round"/>
<path d="M359.72 137.85C359.72 137.61 317.89 129.82 316.97 122.48C332.9 122.84 359.69 138.28 359.72 137.85Z" stroke="#657786" stroke-miterlimit="10" stroke-linecap="round" stroke-linejoin="round"/>
<path d="M361.35 148.98C361.34 148.74 316.74 141.27 316.25 132.11C340.42 131.73 361.49 148.84 361.35 148.98Z" stroke="#657786" stroke-miterlimit="10" stroke-linecap="round" stroke-linejoin="round"/>
<path d="M362.63 160.46C362.62 160.27 321.6 151.42 313.55 141.91C348.08 146.68 362.7 160.48 362.63 160.46Z" stroke="#657786" stroke-miterlimit="10" stroke-linecap="round" stroke-linejoin="round"/>
<path d="M363.47 171.64C363.36 171.71 329.82 168.73 312.33 152.36C344.02 155.6 363.58 171.57 363.47 171.64Z" stroke="#657786" stroke-miterlimit="10" stroke-linecap="round" stroke-linejoin="round"/>
<path d="M363.92 183.16C363.98 182.78 309.78 170.08 309.85 163.08C324.6 161.82 364.14 182.73 363.92 183.16Z" stroke="#657786" stroke-miterlimit="10" stroke-linecap="round" stroke-linejoin="round"/>
<path d="M363.97 194.37C363.92 194.23 316.4 185.45 307.32 171.5C323.61 172.26 364.2 193.94 363.97 194.37Z" stroke="#657786" stroke-miterlimit="10" stroke-linecap="round" stroke-linejoin="round"/>
<path d="M363.61 205.9C363.64 205.58 308.16 192.81 307.81 182.27C322.2 181.46 363.89 205.4 363.61 205.9Z" stroke="#657786" stroke-miterlimit="10" stroke-linecap="round" stroke-linejoin="round"/>
<path d="M362.85 217.12C362.89 216.87 312.6 203.68 305.82 194.43C324.09 193.53 363.12 216.68 362.85 217.12Z" stroke="#657786" stroke-miterlimit="10" stroke-linecap="round" stroke-linejoin="round"/>
<path d="M320.62 27.21C321.68 27.74 333.82 17.21 328.36 9.52C323.02 14.35 320.69 27.23 320.62 27.21Z" stroke="#657786" stroke-miterlimit="10" stroke-linecap="round" stroke-linejoin="round"/>
<path d="M326.36 38.04C326.37 38.09 340.39 27.95 335.2 20.15C327.54 22.61 325.37 36.86 326.36 38.04Z" stroke="#657786" stroke-miterlimit="10" stroke-linecap="round" stroke-linejoin="round"/>
<path d="M331.73 48.33C331.72 48.37 350.09 40.16 345.24 32.22C337.39 35.26 330.66 47.5 331.73 48.33Z" stroke="#657786" stroke-miterlimit="10" stroke-linecap="round" stroke-linejoin="round"/>
<path d="M336.67 59.36C336.66 59.4 357.24 50.77 352.65 42.72C344.89 44.5 335.71 57.82 336.67 59.36Z" stroke="#657786" stroke-miterlimit="10" stroke-linecap="round" stroke-linejoin="round"/>
<path d="M341.13 70.27C339.41 71.19 361.35 66.06 360.03 56.26C357.16 54.32 343.67 66.71 341.13 70.27Z" stroke="#657786" stroke-miterlimit="10" stroke-linecap="round" stroke-linejoin="round"/>
<path d="M345.41 81.87C345.41 81.93 368.9 71.73 364.83 63.47C356.31 65.79 344.69 81 345.41 81.87Z" stroke="#657786" stroke-miterlimit="10" stroke-linecap="round" stroke-linejoin="round"/>
<path d="M348.95 92.56C348.98 92.67 376.04 79.81 372.13 71.4C361.6 73.09 346.58 91.11 348.95 92.56Z" stroke="#657786" stroke-miterlimit="10" stroke-linecap="round" stroke-linejoin="round"/>
<path d="M352.22 103.69C352.98 105.48 383.03 89.89 378.14 79.05C369.93 80.8 350.97 101.84 352.22 103.69Z" stroke="#657786" stroke-miterlimit="10" stroke-linecap="round" stroke-linejoin="round"/>
<path d="M355.14 115.06C355.81 116.67 387.82 102.19 383.48 91.63C371.94 93.77 355.33 115.24 355.14 115.06Z" stroke="#657786" stroke-miterlimit="10" stroke-linecap="round" stroke-linejoin="round"/>
<path d="M357.64 125.98C357.73 126.22 393.32 109.03 390.07 100.2C375.82 105.58 358.17 126.74 357.64 125.98Z" stroke="#657786" stroke-miterlimit="10" stroke-linecap="round" stroke-linejoin="round"/>
<path d="M359.47 137.38C359.53 137.62 399.36 121.48 395.4 110.5C372.69 116.52 359.65 137.5 359.47 137.38Z" stroke="#657786" stroke-miterlimit="10" stroke-linecap="round" stroke-linejoin="round"/>
<path d="M361.35 148.98C361.38 149.17 398.25 133.97 402.12 120.81C370.81 133.62 361.4 148.95 361.35 148.98Z" stroke="#657786" stroke-miterlimit="10" stroke-linecap="round" stroke-linejoin="round"/>
<path d="M362.63 160.46C362.48 160.4 394.66 154.61 407 132.54C377.32 142.14 362.74 160.52 362.63 160.46Z" stroke="#657786" stroke-miterlimit="10" stroke-linecap="round" stroke-linejoin="round"/>
<path d="M363.47 171.64C363.57 172.02 414.56 154.03 412.43 144.67C398.13 146.25 363.75 172.06 363.47 171.64Z" stroke="#657786" stroke-miterlimit="10" stroke-linecap="round" stroke-linejoin="round"/>
<path d="M363.91 182.69C363.84 182.84 410.13 172.83 416.72 154.41C401.25 158.13 364.18 183.12 363.91 182.69Z" stroke="#657786" stroke-miterlimit="10" stroke-linecap="round" stroke-linejoin="round"/>
<path d="M363.61 194.09C363.62 194.42 418.59 181.29 417.73 167.4C403.84 168.54 363.9 194.59 363.61 194.09Z" stroke="#657786" stroke-miterlimit="10" stroke-linecap="round" stroke-linejoin="round"/>
<path d="M363.47 205.2C363.47 205.46 413.71 194.27 420.35 182.05C402.47 182.32 363.7 205.65 363.47 205.2Z" stroke="#657786" stroke-miterlimit="10" stroke-linecap="round" stroke-linejoin="round"/>
<path d="M362.86 216.65C362.81 216.79 409.07 208.81 423.45 193.74C410.64 193.28 363.1 217.24 362.86 216.65Z" stroke="#657786" stroke-miterlimit="10" stroke-linecap="round" stroke-linejoin="round"/>
<path d="M316.75 19.69C366.83 106.28 377.52 202.56 346.79 294.22" stroke="#657786" stroke-miterlimit="10" stroke-linecap="round" stroke-linejoin="round"/>
</svg>
