<svg width="16" height="16" viewBox="0 0 16 16" fill="none" xmlns="http://www.w3.org/2000/svg">
<path fill-rule="evenodd" clip-rule="evenodd" d="M7.64177 6.80019C7.37895 7.15496 7.02544 7.43193 6.61861 7.60182H6.57864C7.14499 7.73884 7.64224 8.07793 7.9775 8.55577C8.28925 9.03091 8.44827 9.59046 8.43313 10.159C8.44684 10.6178 8.34513 11.0727 8.13737 11.4817C7.94964 11.8474 7.67514 12.1613 7.33802 12.3956C6.99 12.6344 6.60321 12.8107 6.19495 12.9166C5.76423 13.0287 5.32101 13.0853 4.87603 13.085H0V3.00045H4.77211C5.21245 2.99505 5.65205 3.03806 6.08304 3.12871C6.44723 3.19338 6.79339 3.33551 7.09822 3.54556C7.38573 3.74759 7.61245 4.02487 7.75368 4.3472C7.92179 4.71924 8.00116 5.12545 7.98549 5.53361C8.00337 5.98119 7.88335 6.42343 7.64177 6.80019ZM10.3915 3.5135H14.4442L14.4602 4.6438H10.3915V3.5135ZM12.5498 11.5859C12.9184 11.5973 13.2815 11.4936 13.5889 11.2893C13.8159 11.1459 13.99 10.9319 14.0845 10.6801H15.8511C15.6493 11.4413 15.1884 12.1077 14.5482 12.5639C13.9143 12.9533 13.1808 13.1483 12.4379 13.1251C11.9084 13.1341 11.382 13.0416 10.8871 12.8525C10.4433 12.676 10.0446 12.4021 9.72009 12.0509C9.40649 11.6931 9.16733 11.2761 9.01667 10.8244C8.83929 10.3255 8.75265 9.79879 8.76088 9.26922C8.756 8.74707 8.84537 8.22834 9.02466 7.7381C9.19174 7.28399 9.45023 6.86923 9.78404 6.51962C10.1188 6.17687 10.5182 5.90436 10.9591 5.71799C11.4405 5.51841 11.9569 5.41756 12.4778 5.42139C13.0317 5.41281 13.5797 5.53645 14.0765 5.78212C14.5231 6.01533 14.9112 6.34695 15.2116 6.7521C15.5101 7.16977 15.7271 7.64032 15.8511 8.13892C15.9793 8.663 16.0251 9.20393 15.987 9.74219H10.6953C10.6719 10.2591 10.8496 10.765 11.1909 11.1531C11.5641 11.4807 12.0565 11.6375 12.5498 11.5859ZM10.8471 7.98662C10.9729 7.58246 11.2633 7.2505 11.6465 7.07276C11.8974 6.95947 12.1707 6.90466 12.4458 6.91243C12.848 6.87798 13.2451 7.02146 13.5329 7.30523C13.8045 7.63866 13.9788 8.04096 14.0365 8.4676H10.7192C10.7322 8.30469 10.7616 8.14353 10.8072 7.98662H10.8471ZM2.21416 4.72395H4.28447C4.47467 4.72372 4.66454 4.73981 4.85201 4.77205C5.02463 4.7977 5.1904 4.85766 5.33961 4.94841C5.48377 5.03019 5.60058 5.15291 5.67534 5.30113C5.76792 5.47886 5.81204 5.67797 5.80323 5.8783C5.83345 6.22835 5.69358 6.57155 5.42754 6.80018C5.14147 6.99741 4.79916 7.09589 4.45233 7.08075H2.21416V4.72395ZM5.72334 11.0889C5.87673 10.9899 6.00092 10.8515 6.08304 10.6881C6.16247 10.4815 6.19258 10.2592 6.17097 10.0388C6.2122 9.61963 6.05191 9.20584 5.73933 8.92452C5.39818 8.69302 4.99179 8.57778 4.58027 8.59585H2.18222V11.3615H4.58027C4.78989 11.3648 4.99917 11.3433 5.20376 11.2974C5.38783 11.2591 5.56371 11.1885 5.72334 11.0889Z" fill="#E1E8ED"/>
</svg>
