<svg width="16" height="16" viewBox="0 0 16 16" fill="none" xmlns="http://www.w3.org/2000/svg">
<path fill-rule="evenodd" clip-rule="evenodd" d="M8 0C3.58172 0 0 3.58172 0 8C0 12.4183 3.58172 16 8 16C12.4183 16 16 12.4183 16 8C16 5.87827 15.1571 3.84344 13.6569 2.34315C12.1566 0.842855 10.1217 0 8 0ZM7.99995 1.6C9.64373 1.59934 11.2238 2.23595 12.4079 3.376C11.1856 4.09296 9.89025 4.6776 8.54395 5.12C7.87394 3.96546 7.10577 2.87075 6.24795 1.848C6.81752 1.684 7.40724 1.60052 7.99995 1.6ZM6.95997 5.6C6.30235 4.50943 5.55012 3.4788 4.71197 2.52C3.33912 3.34544 2.32573 4.65571 1.87197 6.192H2.15997C3.77798 6.18869 5.38965 5.98992 6.95997 5.6ZM3.19997 12.248C2.15897 11.079 1.58883 9.56528 1.59996 7.99999V7.76799H2.14397C4.03787 7.75106 5.92108 7.48203 7.74397 6.96799C7.99996 7.45599 8.23997 7.95999 8.47196 8.47999C7.22516 8.91953 6.06397 9.57185 5.03997 10.408L4.79996 10.6C4.22966 11.1122 3.69508 11.6628 3.19997 12.248ZM4.42402 13.304C5.47858 14.0209 6.72489 14.4028 8.00002 14.4C8.76667 14.4037 9.52787 14.271 10.248 14.008C9.98366 12.6465 9.60909 11.3088 9.12802 10.008C7.9592 10.4124 6.87456 11.0279 5.92802 11.824L5.67202 12.04C5.2303 12.4351 4.8135 12.8573 4.42402 13.304ZM11.704 13.208C11.4422 11.9973 11.1002 10.8053 10.68 9.64H10.952C10.9835 9.63221 11.0165 9.63221 11.048 9.64H11.136H11.216H11.6C12.4419 9.64241 13.2774 9.78572 14.072 10.064C13.6354 11.3363 12.8063 12.4372 11.704 13.208ZM11.104 8.00001H11.6C12.5488 7.99055 13.4934 8.12819 14.4 8.40801V8.00001C14.4105 6.78469 14.0748 5.59151 13.432 4.56001C12.1363 5.3444 10.7605 5.98806 9.32803 6.48001C9.59203 7.02401 9.83203 7.54401 10.064 8.08001H10.144C10.3582 8.04008 10.5746 8.01336 10.792 8.00001C10.8956 7.98696 11.0004 7.98696 11.104 8.00001Z" fill="#E1E8ED"/>
</svg>
