<svg width="1366" height="331" viewBox="0 0 1366 331" fill="none" xmlns="http://www.w3.org/2000/svg">
<path d="M1366 39.0482H0V331H1366V39.0482Z" fill="#014159"/>
<path d="M478.062 266.164C413.772 244.146 386.067 219.998 366.93 167.001C362.895 155.842 343.414 138.003 322.691 142.003C305.433 145.003 298.519 156.002 293.347 166.001C264.918 217.768 264.831 281.633 303.105 330.96C305.209 331.01 304.967 331.01 307.467 331.01H761.186C776.892 325.43 781.081 316.221 787.081 305.012C787.081 278.004 626.52 317.001 478.062 266.164Z" fill="#173750"/>
<path d="M1097.67 193.149C1101.96 208.898 1105.7 225.087 1100.03 240.696C1097.05 248.886 1091.48 257.085 1093.67 265.365C1095.86 273.644 1110.34 281.623 1123.75 278.514C1129.22 277.244 1133.17 274.464 1136.37 271.604C1167.87 243.416 1144.51 204.669 1165.73 173.421C1166.98 171.601 1168.7 169.631 1171.92 169.031C1175.98 168.281 1180.01 170.111 1182.89 171.921C1208.68 188.26 1211.15 212.738 1207.18 234.757C1204.3 250.796 1199.32 268.364 1214.35 281.933C1230.01 296.062 1264.42 300.642 1291.64 294.903C1318.88 289.173 1338.93 275.034 1349.76 259.465C1360.59 243.896 1363.36 226.877 1364.93 210.118C1366.86 189.55 1367.1 168.641 1358.16 148.713C1349.21 128.784 1330.07 109.705 1300.16 98.566C1270.5 87.5167 1233.78 85.2869 1198.56 84.4569C1174.61 83.897 1150.32 83.867 1127.12 87.3168C1111.41 89.6466 1095.69 93.7063 1083.32 99.8959C1067.22 107.955 1070.69 111.845 1075.03 123.394C1083.76 146.523 1091.29 169.781 1097.67 193.149Z" fill="#173750"/>
<path d="M218.834 173.951C224.006 169.951 229.195 162.952 224.006 160.952C198.111 149.952 167.043 162.952 151.51 175.951C99.7191 213.948 99.7191 261.955 110.081 307.952C111.891 315.811 114.994 323.511 119.235 330.95H303.933C303.467 330.37 303.036 329.77 302.571 329.19C218.11 296.132 146.544 229.157 218.834 173.951Z" fill="#173750"/>
<path d="M89.6506 175.001C142.613 106.185 254.884 65.5582 373.378 40H0V331H57.1868C48.3251 277.674 50.1871 224.527 89.6506 175.001Z" fill="#173750"/>
<path d="M953.952 205.499C933.418 231.277 908.006 258.545 863.181 270.034C855.422 272.024 846.302 274.004 843.423 278.624C840.113 283.923 847.837 289.853 857.181 291.433C866.525 293.003 876.542 291.393 885.61 289.363C931.418 279.134 968.744 257.485 988.174 231.487C994.398 223.157 1008.66 204.779 1000.95 195.599C987.329 179.38 961.469 196.059 953.952 205.499Z" fill="#173750"/>
<path d="M895.334 119.805C914.454 142.473 921.04 145.343 939.987 166.991C959.348 189.1 1041.09 183.4 1041.09 170.031C1041.09 164.391 983.123 133.574 950.349 112.545C939.849 105.815 916.902 90.6765 899.265 90.9265C868.146 91.3765 887.455 110.465 895.334 119.805Z" fill="#173750"/>
<path d="M1366 40H0V121.918L324.784 138.182C384.495 143.107 445.231 141.569 503.969 133.627L779.764 106.723C825.747 100.51 873.113 98.4817 920.155 100.719L1365.98 121.918V40H1366Z" fill="#075A74"/>
</svg>
