<svg width="207" height="232" viewBox="0 0 207 232" fill="none" xmlns="http://www.w3.org/2000/svg">
<path d="M102.08 114.63C97.9101 114.63 92.0801 121.2 91.0501 127.13C90.2201 131.94 93.3301 138.38 99.0801 138.63C104.83 138.88 157.83 144.73 159.58 146.56C161.58 149.88 163.33 152.97 163.33 152.97C163.33 152.97 165.08 154.64 167.58 154.64C170.08 154.64 170.08 151.89 170.08 151.89C170.08 151.89 166.83 146.99 167.83 146.57C168.83 146.15 179.08 147.39 186.58 150.64C193.33 152.64 200.83 147.14 203.33 140.64C205.83 134.14 207.83 123.64 202.08 122.39C196.33 121.14 102.08 114.63 102.08 114.63Z" fill="#15202B"/>
<path d="M204.53 123.95C200.08 119.04 189.37 131.79 186.85 137.79C185.93 139.99 185.33 142.42 185.74 144.77C186.15 147.12 187.73 149.37 190.02 150.06C192.21 150.71 194.63 149.84 196.37 148.35C198.11 146.86 199.28 144.84 200.37 142.83C202.87 138.24 205.16 133.46 206.03 128.3C206.15 127.56 206.1 126.77 205.78 126.09C204.93 124.25 203.07 124.43 201.59 124.96C198.32 126.12 195.73 128.67 193.65 131.44C190.47 135.66 188.17 140.83 188.82 146.12C188.92 146.96 189.28 147.78 189.94 148.29C191.54 149.52 193.23 148.31 194.46 147.14C197.89 143.89 200.91 140.23 203.57 136.33C204.26 135.32 204.87 134.25 205.35 133.12C205.79 132.1 206.14 130.99 206.05 129.88C205.96 128.83 205.42 127.78 204.49 127.29C203.18 126.61 201.57 127.21 200.3 127.97C196.82 130.03 194.02 133.23 192.47 136.98C191.81 138.59 191.57 140.37 191.89 142.08C192 142.66 192.21 143.32 192.73 143.61C193.59 144.1 194.61 143.37 195.31 142.68C198.46 139.56 201.32 136.16 203.85 132.53C204.49 131.62 205.13 130.62 205.14 129.51C205.14 129.23 205.1 128.93 204.91 128.72C204.52 128.27 203.79 128.46 203.26 128.72C199.55 130.52 196.85 133.87 194.54 137.28C194.53 137.29 194.52 137.31 194.51 137.32C192.3 141.14 195.73 141.81 197.7 140.28C197.78 140.22 197.86 140.16 197.93 140.1C199.78 138.6 201.44 136.85 202.83 134.91C203.56 133.89 204.24 132.71 204.07 131.47C204.03 131.21 203.95 130.94 203.75 130.77C203.25 130.36 202.53 130.84 202.09 131.31C199.61 133.99 197.89 137.36 197.16 140.93C196.76 142.88 194.9 149.36 201.16 144.48" fill="#173750"/>
<path d="M204.53 123.95C200.08 119.04 189.37 131.79 186.85 137.79C185.93 139.99 185.33 142.42 185.74 144.77C186.15 147.12 187.73 149.37 190.02 150.06C192.21 150.71 194.63 149.84 196.37 148.35C198.11 146.86 199.28 144.84 200.37 142.83C202.87 138.24 205.16 133.46 206.03 128.3C206.15 127.56 206.1 126.77 205.78 126.09C204.93 124.25 203.07 124.43 201.59 124.96C198.32 126.12 195.73 128.67 193.65 131.44C190.47 135.66 188.17 140.83 188.82 146.12C188.92 146.96 189.28 147.78 189.94 148.29C191.54 149.52 193.23 148.31 194.46 147.14C197.89 143.89 200.91 140.23 203.57 136.33C204.26 135.32 204.87 134.25 205.35 133.12C205.79 132.1 206.14 130.99 206.05 129.88C205.96 128.83 205.42 127.78 204.49 127.29C203.18 126.61 201.57 127.21 200.3 127.97C196.82 130.03 194.02 133.23 192.47 136.98C191.81 138.59 191.57 140.37 191.89 142.08C192 142.66 192.21 143.32 192.73 143.61C193.59 144.1 194.61 143.37 195.31 142.68C198.46 139.56 201.32 136.16 203.85 132.53C204.49 131.62 205.13 130.62 205.14 129.51C205.14 129.23 205.1 128.93 204.91 128.72C204.52 128.27 203.79 128.46 203.26 128.72C199.55 130.52 196.85 133.87 194.54 137.28C194.53 137.29 194.52 137.31 194.51 137.32C192.3 141.14 195.73 141.81 197.7 140.28C197.78 140.22 197.86 140.16 197.93 140.1C199.78 138.6 201.44 136.85 202.83 134.91C203.56 133.89 204.24 132.71 204.07 131.47C204.03 131.21 203.95 130.94 203.75 130.77C203.25 130.36 202.53 130.84 202.09 131.31C199.61 133.99 197.89 137.36 197.16 140.93C196.76 142.88 194.9 149.36 201.16 144.48" stroke="#15202B" stroke-width="0.5" stroke-miterlimit="10"/>
<path d="M44.5 125.41C36.5 125.41 30.17 163.91 22.33 163.91C17.24 163.91 21 156.08 17.5 156.08C13.83 156.08 0 164.35 0 190.88C0 217.41 28.33 224.41 47.17 224.41C66.01 224.41 97.67 218.01 97.67 190.88C97.67 177.41 96 165.91 93 165.91C90 165.91 91.17 174.91 87.17 174.91C79.67 174.91 77 141.24 69.84 141.24C62.67 141.24 66.34 158.07 54.01 158.07C41.67 158.08 51.5 125.41 44.5 125.41Z" fill="#F26F79"/>
<path d="M54.5 125.41C46.5 125.41 40.17 163.91 32.33 163.91C27.24 163.91 31 156.08 27.5 156.08C23.83 156.08 10 164.35 10 190.88C10 217.41 38.33 224.41 57.17 224.41C76.01 224.41 107.67 218.01 107.67 190.88C107.67 177.41 106 165.91 103 165.91C100 165.91 101.17 174.91 97.17 174.91C89.67 174.91 87 141.24 79.84 141.24C72.67 141.24 76.34 158.07 64.01 158.07C51.67 158.08 61.5 125.41 54.5 125.41Z" fill="#F26F79"/>
<path d="M6.26 199.57C5.01 202.88 2.79998 208.97 1.61998 212.23C1.21998 213.33 1.97998 214.5 3.14998 214.59L78.16 220.29L78.99 205.46L9.54 197.56C8.13 197.4 6.77 198.23 6.26 199.57Z" fill="#15202B"/>
<path d="M16.54 205.99C16.97 205.7 73.8 194.13 88.57 191.13C90.47 190.74 92.3 192.02 92.6 193.93L95.09 209.79C95.43 211.93 93.85 213.9 91.69 214.04L16.55 218.99V205.99H16.54Z" fill="#15202B"/>
<path d="M49.53 169.32C48.42 167.88 46.25 167.91 45.19 169.38C36.55 181.41 4.89999 226.46 5.33999 226.46C5.83999 226.46 26.17 232.63 26.34 231.63C26.49 230.76 48.12 189.56 53.71 178.94C54.51 177.43 54.35 175.59 53.31 174.24L49.53 169.32Z" fill="#15202B"/>
<path d="M50.75 172.95L88.33 220.29L73.16 227.46L44.95 177.76C44.68 177.29 44.77 176.69 45.16 176.31L48.77 172.81C49.34 172.27 50.26 172.33 50.75 172.95Z" fill="#15202B"/>
<path d="M46.41 185.3C45.78 192.18 41.83 231.74 41.83 231.74L55.83 230.8L53.11 185.13C53.05 184.15 52.16 183.43 51.19 183.58L47.51 184.15C46.92 184.23 46.47 184.71 46.41 185.3Z" fill="#15202B"/>
<path d="M59.71 88.63C55.21 88.63 44.37 97.88 31.84 116.63C19.73 134.75 7.34003 153.88 7.34003 176.88C7.34003 199.88 12.27 224.41 57.18 224.41C102.09 224.41 112.09 203.1 112.09 181.99C112.09 160.88 97.95 115.86 87.34 123.08C81.48 127.07 91.59 168.93 82.59 168.93C65.84 168.93 82.84 108.57 74.09 106.12C68.55 104.57 68.59 130.37 54.81 124.37C41.48 118.63 72.21 88.63 59.71 88.63Z" stroke="#FEDF88" stroke-miterlimit="10"/>
<path d="M81.33 94.13C78.33 94.13 78.08 100.44 81.33 100.44C84.58 100.44 85.08 94.13 81.33 94.13Z" stroke="#FEDF88" stroke-miterlimit="10"/>
<path d="M80.96 75.6C78.46 75.6 77.71 82.25 80.96 82.25C84.21 82.25 84.96 75.6 80.96 75.6Z" stroke="#FEDF88" stroke-miterlimit="10"/>
<path d="M67.8301 64.75C65.8301 64.75 65.8301 68.29 67.8301 68.29C69.8301 68.29 69.9601 64.75 67.8301 64.75Z" stroke="#FEDF88" stroke-miterlimit="10"/>
<path d="M61.71 107.5C58.46 107.5 56.26 115.63 61.02 115.63C65.78 115.63 66.96 107.5 61.71 107.5Z" stroke="#FEDF88" stroke-miterlimit="10"/>
<path d="M67.6401 36.81C65.2101 36.81 65.5801 39.63 67.6401 39.63C69.7001 39.63 70.0701 36.81 67.6401 36.81Z" stroke="#FEDF88" stroke-miterlimit="10"/>
<path d="M39.71 89.63C37.21 89.63 35.46 94.63 39.08 94.63C42.7 94.63 42.21 89.63 39.71 89.63Z" stroke="#FEDF88" stroke-miterlimit="10"/>
<path d="M65.9501 85.26L67.6401 82.25" stroke="#FEDF88" stroke-miterlimit="10"/>
<path d="M92.8301 89.63L91.5801 86.13" stroke="#FEDF88" stroke-miterlimit="10"/>
<path d="M83.9601 66L83.6801 63.13" stroke="#FEDF88" stroke-miterlimit="10"/>
<path d="M76.21 21.5L77.08 18.75" stroke="#FEDF88" stroke-miterlimit="10"/>
<path d="M70.58 4.12997L69.38 1" stroke="#FEDF88" stroke-miterlimit="10"/>
</svg>
