<svg width="16" height="17" viewBox="0 0 16 17" fill="none" xmlns="http://www.w3.org/2000/svg">
<path fill-rule="evenodd" clip-rule="evenodd" d="M0 8.71536C0 4.25661 3.49296 0.9552 8 0.9552C12.507 0.9552 16 4.25661 16 8.71536C16 13.1741 12.507 16.4755 8 16.4755C7.19034 16.4755 6.41288 16.3693 5.6837 16.1681C5.54205 16.1294 5.39235 16.1407 5.25714 16.2003L3.67002 16.9005C3.25473 17.0824 2.78632 16.7878 2.77183 16.3339L2.72837 14.9109C2.72193 14.7355 2.64306 14.5729 2.51268 14.4554C0.956137 13.063 0 11.0478 0 8.71536ZM5.54686 7.257L3.19676 10.985C2.9698 11.3423 3.41084 11.7463 3.74726 11.4904L6.27281 9.5733C6.44344 9.44453 6.67845 9.44292 6.85068 9.57169L8.71949 10.9737C9.27966 11.3938 10.0813 11.2457 10.4547 10.6534L12.8032 6.92702C13.0302 6.56968 12.5891 6.16565 12.2527 6.42159L9.72875 8.33708C9.55813 8.46585 9.32312 8.46746 9.15088 8.33869L7.28207 6.93668C6.72191 6.51656 5.9203 6.66465 5.54686 7.257Z" fill="#E1E8ED"/>
</svg>
