<svg width="16" height="17" viewBox="0 0 16 17" fill="none" xmlns="http://www.w3.org/2000/svg">
<path d="M15.548 10.6789C15.6618 10.1462 15.7186 9.60278 15.7172 9.05798C15.7116 8.06178 15.5096 7.07646 15.1229 6.15836C14.7361 5.24026 14.1722 4.40738 13.4634 3.70734C12.7545 3.0073 11.9146 2.45382 10.9917 2.07856C10.0687 1.70329 9.08087 1.51359 8.08458 1.52031C7.64872 1.51919 7.21363 1.55715 6.78455 1.63373C6.11841 1.21522 5.3528 0.981685 4.56646 0.957156C3.78012 0.932626 3.00144 1.11798 2.3105 1.49417C1.61956 1.87035 1.04132 2.42377 0.635234 3.09752C0.22915 3.77126 0.00988846 4.54101 0 5.32759C0.000503839 6.10308 0.208667 6.86428 0.602865 7.53212C0.505062 8.02875 0.454524 8.53351 0.451929 9.03967C0.460281 10.029 0.665073 11.0068 1.05442 11.9163C1.44376 12.8258 2.0099 13.649 2.71998 14.338C3.43005 15.027 4.26992 15.5681 5.19084 15.9299C6.11175 16.2917 7.09536 16.467 8.08458 16.4456C8.55263 16.4491 9.01981 16.4047 9.4788 16.3129C10.1122 16.697 10.8313 16.9174 11.5711 16.9542C12.3175 16.9684 13.055 16.79 13.7125 16.4364C14.37 16.0827 14.9253 15.5657 15.3249 14.9351C15.7245 14.3046 15.955 13.5817 15.994 12.8363C16.0331 12.0908 15.8795 11.3478 15.548 10.6789ZM11.5519 12.1489C11.2208 12.5927 10.7697 12.9326 10.2519 13.1287C9.61108 13.3837 8.92497 13.5054 8.23551 13.4863C7.43462 13.5123 6.63931 13.3444 5.91727 12.9969C5.49494 12.772 5.13286 12.4489 4.8615 12.0548C4.62063 11.7254 4.48306 11.3318 4.46628 10.9241C4.46438 10.8205 4.48538 10.7178 4.52776 10.6232C4.57014 10.5286 4.63286 10.4446 4.71146 10.3771C4.88085 10.2232 5.10395 10.142 5.33264 10.1511C5.51763 10.1435 5.69898 10.204 5.84227 10.3212C5.99947 10.4679 6.12171 10.6479 6.19995 10.8481C6.29674 11.0991 6.43025 11.3343 6.59612 11.5461C6.74783 11.7452 6.94908 11.901 7.17979 11.998C7.49563 12.1311 7.83621 12.1953 8.17882 12.1864C8.66349 12.213 9.14439 12.088 9.55478 11.8288C9.71322 11.7362 9.84506 11.6043 9.93754 11.4458C10.03 11.2873 10.08 11.1076 10.0826 10.9241C10.0881 10.7945 10.0656 10.6652 10.0169 10.5449C9.96812 10.4247 9.89415 10.3163 9.79996 10.2271C9.59241 10.0306 9.33984 9.88794 9.06437 9.8117C8.76342 9.71751 8.34802 9.62329 7.8394 9.51079C7.25527 9.38724 6.68195 9.21716 6.12495 9.00217C5.69682 8.83064 5.32024 8.55147 5.03168 8.19172C4.75873 7.82881 4.61887 7.38309 4.63556 6.92932C4.63502 6.46603 4.78747 6.01553 5.06923 5.64774C5.38848 5.24991 5.81285 4.9495 6.2942 4.78059C6.90519 4.56523 7.55038 4.46324 8.19802 4.47962C8.70807 4.47309 9.21625 4.54277 9.70572 4.68635C10.0865 4.79665 10.444 4.97552 10.7605 5.21416C11.0128 5.40217 11.2244 5.63927 11.3827 5.9112C11.5036 6.12382 11.5684 6.3637 11.5711 6.60827C11.5714 6.71431 11.5498 6.81926 11.5076 6.91654C11.4654 7.01382 11.4035 7.10133 11.3259 7.17358C11.2485 7.25477 11.1547 7.3186 11.0508 7.36086C10.9468 7.40312 10.8351 7.42285 10.723 7.41874C10.541 7.4295 10.361 7.37609 10.2144 7.26782C10.063 7.12627 9.93565 6.96097 9.83746 6.77843C9.68749 6.47942 9.47539 6.21588 9.21536 6.00542C8.86676 5.78734 8.45683 5.68817 8.04708 5.72277C7.62395 5.70305 7.20435 5.80803 6.84037 6.02466C6.70966 6.09495 6.59936 6.19784 6.52017 6.32335C6.44098 6.44886 6.3956 6.59271 6.38844 6.74094C6.38945 6.90378 6.44232 7.06206 6.53938 7.19282C6.65612 7.33281 6.80487 7.44262 6.97304 7.51296C7.14481 7.60666 7.32854 7.67653 7.51917 7.72063C7.70765 7.77736 8.0096 7.85236 8.44227 7.94659C8.97013 8.06001 9.46053 8.19175 9.89415 8.32343C10.2868 8.43973 10.661 8.61097 11.0057 8.83204C11.2993 9.02493 11.5444 9.28287 11.722 9.58582C11.9036 9.92794 11.9944 10.3109 11.9855 10.6982C12.0079 11.2167 11.8552 11.7277 11.5519 12.1489Z" fill="#1DA1F2"/>
</svg>
