<svg width="16" height="17" viewBox="0 0 16 17" fill="none" xmlns="http://www.w3.org/2000/svg">
<path d="M8 0.955215C6.41775 0.955215 4.87103 1.42441 3.55544 2.30346C2.23985 3.18251 1.21447 4.43194 0.608967 5.89375C0.00346627 7.35556 -0.15496 8.96409 0.153721 10.5159C0.462403 12.0678 1.22433 13.4932 2.34315 14.6121C3.46197 15.7309 4.88743 16.4928 6.43928 16.8015C7.99113 17.1102 9.59966 16.9517 11.0615 16.3462C12.5233 15.7407 13.7727 14.7154 14.6518 13.3998C15.5308 12.0842 16 10.5375 16 8.95521C16.0001 7.90461 15.7932 6.86429 15.3912 5.89364C14.9892 4.923 14.3999 4.04105 13.6571 3.29817C12.9142 2.55528 12.0322 1.96601 11.0616 1.564C10.0909 1.16199 9.0506 0.955128 8 0.955215ZM10.5436 13.0772C10.5137 13.1519 10.4681 13.2193 10.41 13.2749C10.3519 13.3305 10.2825 13.373 10.2066 13.3997C10.1307 13.4263 10.05 13.4364 9.96985 13.4293C9.88972 13.4221 9.81204 13.398 9.74201 13.3584L7.57027 11.6709L6.17642 12.9568C6.14408 12.9807 6.10624 12.9961 6.0664 13.0015C6.02656 13.007 5.98599 13.0023 5.94842 12.988L6.21562 10.5972L6.22417 10.604L6.22963 10.5568C6.22963 10.5568 10.1376 6.99877 10.2968 6.84718C10.458 6.69598 10.4048 6.66318 10.4048 6.66318C10.414 6.47876 10.1156 6.66318 10.1156 6.66318L4.9376 9.99441L2.78121 9.26001C2.78121 9.26001 2.45001 9.14121 2.41881 8.88001C2.38601 8.62081 2.792 8.48001 2.792 8.48001L11.3656 5.07401C11.3656 5.07401 12.0704 4.75999 12.0704 5.28001L10.5436 13.0772Z" fill="#1DA1F2"/>
</svg>
