<svg width="218" height="54" viewBox="0 0 218 54" fill="none" xmlns="http://www.w3.org/2000/svg">
<path d="M0.0399933 34.87H217.37L213.7 25.87L212.37 31.87L210.37 19.2L209.04 31.53L206.37 24.53L204.04 31.2L195.88 15.74L192.04 30.86L189.37 19.19L186.37 30.19L183.04 9.52002L178.71 29.52L173.71 15.52L168.71 28.52L165.71 22.19L163.04 28.52L161.04 24.52L159.71 28.85L155.54 0.350006L152.04 28.18L145.37 22.18L138.7 28.51L137.7 16.84L134.7 28.17L126.03 17.84L119.03 27.84L117.03 22.17L114.03 28.17L112.36 16.84L108.69 29.17L101.82 8.67001L93.69 27.83L91.36 16.16L87.03 28.83L82.7 9.5C82.7 9.5 78.7 30.83 78.7 29.83C78.7 28.83 74.7 3.16 74.7 3.16L65.37 29.83L63.04 14.83L60.37 29.83L48.54 11.33L38.71 29.16L32.71 22.83L31.71 29.83L26.71 23.16L24.71 29.16L19.71 22.83L16.04 28.16L12.37 8.83002L8.36999 27.83L0.0399933 4.83002V34.87Z" fill="#15202B"/>
<path d="M0.0399933 34.87H217.37L213.7 39.7L212.37 36.48L210.37 43.27L209.04 36.66L206.37 40.41L204.04 36.84L195.88 45.13L192.04 37.02L189.37 43.28L186.37 37.38L183.04 48.46L178.71 37.74L173.71 45.25L168.71 38.28L165.71 41.68L163.04 38.28L161.04 40.42L159.71 38.1L155.54 53.38L152.04 38.45L145.37 41.67L138.7 38.27L137.7 44.53L134.7 38.45L126.03 43.99L119.03 38.63L117.03 41.67L114.03 38.45L112.36 44.53L108.69 37.92L101.84 48.9L93.71 38.62L91.38 44.88L87.05 38.09L82.72 48.46C82.72 48.46 78.72 37.02 78.72 37.56C78.72 38.1 74.72 51.86 74.72 51.86L65.39 37.56L63.06 45.6L60.39 37.56L48.56 47.48L38.73 37.92L32.73 41.32L31.73 37.57L26.73 41.14L24.73 37.92L19.73 41.32L16.06 38.46L12.39 48.83L8.38999 38.64L0.0599937 50.97V34.87" fill="#003149"/>
</svg>
