<svg width="415" height="59" viewBox="0 0 415 59" fill="none" xmlns="http://www.w3.org/2000/svg">
<path d="M414.21 40.5L403.04 18L396.54 37C396.54 37 390.04 24 389.04 25.5C388.04 27 380.54 37.5 380.54 37.5L375.54 18L369.04 37L363.54 26.5L356.54 36.5L353.04 29.25L349.54 34L346.04 23.25L339.04 31.5L327.54 6C327.54 6 322.54 31.5 321.54 31.5C320.54 31.5 308.04 6 308.04 6L299.54 31.5L292.54 19.5L285.54 28.5L280.04 14.5L270.54 36.5L265.04 27L262.04 37L257.54 31.5L253.04 37.5L244.54 23.25L238.54 37.5L234.54 3L229.54 31.5L225.04 6L217.04 37.5L210.54 25.5L206.04 37.5L200.54 27.5L194.04 37.5L180.54 8.5L163.54 40.5L155.04 25.5L148.54 36L145.04 31.5C145.04 31.5 139.04 36 138.04 34.5C137.04 33 130.04 21.75 130.04 21.75L120.04 34L111.04 23.25L105.04 31.5L102.54 9.5C102.54 9.5 96.54 23 96.54 23.25C96.54 23.5 92.54 0 92.54 0L83.04 35L80.04 6L73.04 31.5L63.04 2.5L53.54 36L47.54 20.25C47.54 20.25 46.04 34.5 44.04 31.5C42.04 28.5 37.04 20.25 37.04 20.25L32.04 28L21.54 15.5L8.03998 37.5L4.53998 31.5L0.539978 40.5H414.21Z" fill="#15202B"/>
<path d="M414.21 39.87L403.04 50.15L396.54 41.47C396.54 41.47 390.04 47.41 389.04 46.72C388.04 46.03 380.54 41.24 380.54 41.24L375.54 50.15L369.04 41.47L363.54 46.27L356.54 41.7L353.04 45.01L349.54 42.84L346.04 47.75L339.04 43.98L327.54 55.63C327.54 55.63 322.54 43.98 321.54 43.98C320.54 43.98 308.04 55.63 308.04 55.63L299.54 43.98L292.54 49.46L285.54 45.35L280.04 51.75L270.54 41.7L265.04 46.04L262.04 41.47L257.54 43.98L253.04 41.24L244.54 47.75L238.54 41.24L234.54 57L229.54 43.98L225.04 55.63L217.04 41.24L210.54 46.72L206.04 41.24L200.54 45.81L194.04 41.24L180.54 54.49L163.54 39.87L155.04 46.72L148.54 41.92L145.04 43.98C145.04 43.98 139.04 41.92 138.04 42.61C137.04 43.3 130.04 48.43 130.04 48.43L120.04 42.83L111.04 47.74L105.04 43.97L102.54 54.02C102.54 54.02 96.54 47.85 96.54 47.74C96.54 47.63 92.54 58.36 92.54 58.36L83.04 42.37L80.04 55.62L73.04 43.97L63.04 57.22L53.54 41.92L47.54 49.11C47.54 49.11 46.04 42.6 44.04 43.97C42.04 45.34 37.04 49.11 37.04 49.11L32.04 45.57L21.54 51.28L8.03998 41.23L4.53998 43.97L0.539978 39.86H414.21V39.87Z" fill="#003249"/>
</svg>
