<svg width="16" height="16" viewBox="0 0 16 16" fill="none" xmlns="http://www.w3.org/2000/svg">
<path d="M0 8C0 1.412 1.412 0 8 0C14.588 0 16 1.412 16 8C16 14.588 14.588 16 8 16C1.412 16 0 14.588 0 8Z" fill="#1DA1F2"/>
<path d="M10.8772 8.99993C11.4983 8.99993 12.0017 9.50338 12.0017 10.1244V10.5836C12.0017 10.8703 11.9121 11.1498 11.7454 11.383C10.9724 12.4647 9.7103 13.0005 8.0002 13.0005C6.2897 13.0005 5.02821 12.4644 4.25713 11.3823C4.09115 11.1493 4.00195 10.8704 4.00195 10.5844V10.1244C4.00195 9.50338 4.50538 8.99993 5.12639 8.99993H10.8772ZM8.0002 3.00229C9.3809 3.00229 10.5002 4.12158 10.5002 5.50229C10.5002 6.883 9.3809 8.00228 8.0002 8.00228C6.61947 8.00228 5.50018 6.883 5.50018 5.50229C5.50018 4.12158 6.61947 3.00229 8.0002 3.00229Z" fill="white"/>
</svg>
